<?xml version="1.0" encoding="UTF-8"?>
<!DOCTYPE svg PUBLIC "-//W3C//DTD SVG 1.1//EN" "http://www.w3.org/Graphics/SVG/1.1/DTD/svg11.dtd">
<svg xmlns="http://www.w3.org/2000/svg" version="1.1" width="64px" height="64px" style="shape-rendering:geometricPrecision; text-rendering:geometricPrecision; image-rendering:optimizeQuality; fill-rule:evenodd; clip-rule:evenodd" xmlns:xlink="http://www.w3.org/1999/xlink">
<g><path style="opacity:0.983" fill="#80c92d" d="M 17.5,-0.5 C 26.1667,-0.5 34.8333,-0.5 43.5,-0.5C 52.6812,4.21829 55.5146,11.5516 52,21.5C 46.1556,30.0692 37.989,33.7359 27.5,32.5C 27.5,38.1667 27.5,43.8333 27.5,49.5C 29.8333,50.1667 32.1667,50.8333 34.5,51.5C 31.1667,55.5 27.5,59.1667 23.5,62.5C 22.1667,62.1667 20.8333,61.8333 19.5,61.5C 15.8333,58.5 12.5,55.1667 9.5,51.5C 12.1667,50.8333 14.8333,50.1667 17.5,49.5C 17.5,32.8333 17.5,16.1667 17.5,-0.5 Z M 42.5,18.5 C 40.8333,19.5 39.5,20.8333 38.5,22.5C 34.7636,23.7975 31.0969,24.1308 27.5,23.5C 27.5,17.5 27.5,11.5 27.5,5.5C 37.8588,3.99549 42.8588,8.32883 42.5,18.5 Z"/></g>
<g><path style="opacity:0.745" fill="#81b258" d="M 42.5,18.5 C 42.1667,20.8333 40.8333,22.1667 38.5,22.5C 39.5,20.8333 40.8333,19.5 42.5,18.5 Z"/></g>
<g><path style="opacity:0.667" fill="#80b259" d="M 17.5,49.5 C 14.8333,50.1667 12.1667,50.8333 9.5,51.5C 8.71087,51.2172 8.0442,50.7172 7.5,50C 10.8168,49.5017 14.1501,49.335 17.5,49.5 Z"/></g>
<g><path style="opacity:0.666" fill="#80b25a" d="M 27.5,49.5 C 30.5184,49.3354 33.5184,49.502 36.5,50C 35.9558,50.7172 35.2891,51.2172 34.5,51.5C 32.1667,50.8333 29.8333,50.1667 27.5,49.5 Z"/></g>
<g><path style="opacity:0.557" fill="#82a268" d="M 19.5,61.5 C 20.8333,61.8333 22.1667,62.1667 23.5,62.5C 23.5,62.8333 23.5,63.1667 23.5,63.5C 22.5,63.5 21.5,63.5 20.5,63.5C 20.1667,62.8333 19.8333,62.1667 19.5,61.5 Z"/></g>
</svg>
